<svg width="48" height="48" viewBox="0 0 48 48" fill="none" xmlns="http://www.w3.org/2000/svg">
<path d="M15.838 28.961H32.112M10.364 4.51C9.8437 4.52279 9.34902 4.7385 8.98561 5.11107C8.62219 5.48364 8.41885 5.98354 8.41901 6.504V41.506C8.41884 42.0263 8.62205 42.526 8.98525 42.8986C9.34845 43.2711 9.84288 43.487 10.363 43.5H37.587C38.1159 43.5 38.623 43.2899 38.997 42.916C39.3709 42.542 39.581 42.0348 39.581 41.506V14.472H31.604C31.0835 14.4592 30.5887 14.2434 30.2253 13.8706C29.8618 13.4978 29.6586 12.9976 29.659 12.477V4.5L10.364 4.51ZM29.569 4.51L39.531 14.472L29.569 4.51ZM15.838 22.928H32.112H15.838ZM15.838 34.994H32.112H15.838Z" stroke="black" stroke-linecap="round" stroke-linejoin="round"/>
</svg>
