<svg width="64" height="64" viewBox="0 0 64 64" fill="none" xmlns="http://www.w3.org/2000/svg">
<path d="M48 6.6C43.3 3.7 37.9 2 32 2V6.6H48Z" fill="#ED4C5C"/>
<path d="M32 11.2001H53.6C51.9 9.5001 50 7.9001 48 6.6001H32V11.2001Z" fill="white"/>
<path d="M32 15.8H57.3C56.2 14.1 55 12.6 53.7 11.2H32V15.8Z" fill="#ED4C5C"/>
<path d="M32 20.4H59.7C59 18.8 58.2 17.2 57.3 15.8H32V20.4Z" fill="white"/>
<path d="M32 24.9999H61.2C60.8 23.3999 60.3 21.8999 59.7 20.3999H32V24.9999Z" fill="#ED4C5C"/>
<path d="M32 29.7001H61.9C61.8 28.1001 61.5 26.6001 61.2 25.1001H32V29.7001" fill="white"/>
<path d="M61.9 29.7H32V32H2C2 32.8 2 33.4999 2.1 34.2999H61.9C62 33.4999 62 32.8 62 32C62 31.2 62 30.4 61.9 29.7" fill="#ED4C5C"/>
<path d="M2.80001 38.9001H61.2C61.6 37.4001 61.8 35.9 61.9 34.3H2.10001C2.20001 35.8 2.50001 37.4001 2.80001 38.9001Z" fill="white"/>
<path d="M4.29999 43.4999H59.7C60.3 41.9999 60.8 40.4999 61.2 38.8999H2.79999C3.19999 40.4999 3.69999 41.9999 4.29999 43.4999Z" fill="#ED4C5C"/>
<path d="M6.69999 48.1H57.3C58.2 46.6 59 45.1 59.7 43.5H4.29999C4.99999 45.1 5.79999 46.6 6.69999 48.1" fill="white"/>
<path d="M10.3 52.7001H53.7C55 51.3001 56.3 49.7001 57.3 48.1001H6.70001C7.70001 49.8001 9.00001 51.3001 10.3 52.7001Z" fill="#ED4C5C"/>
<path d="M15.9 57.2999H48.1C50.2 55.9999 52 54.4 53.7 52.7H10.3C12 54.5 13.9 55.9999 15.9 57.2999Z" fill="white"/>
<path d="M32 62C37.9 62 43.4 60.3 48.1 57.3H15.9C20.6 60.3 26.1 62 32 62Z" fill="#ED4C5C"/>
<path d="M16 6.6C13.9 7.9 12 9.5 10.3 11.2C8.9 12.6 7.7 14.2 6.7 15.8C5.8 17.3 4.9 18.8 4.3 20.4C3.7 21.9 3.2 23.4 2.8 25C2.4 26.5 2.2 28 2.1 29.6C2 30.4 2 31.2 2 32H32V2C26.1 2 20.7 3.7 16 6.6Z" fill="#428BC1"/>
<path d="M25 3L25.5 4.5H27L25.8 5.5L26.2 7L25 6.1L23.8 7L24.2 5.5L23 4.5H24.5L25 3ZM29 9L29.5 10.5H31L29.8 11.5L30.2 13L29 12.1L27.8 13L28.2 11.5L27 10.5H28.5L29 9ZM21 9L21.5 10.5H23L21.8 11.5L22.2 13L21 12.1L19.8 13L20.2 11.5L19 10.5H20.5L21 9ZM25 15L25.5 16.5H27L25.8 17.5L26.2 19L25 18.1L23.8 19L24.2 17.5L23 16.5H24.5L25 15ZM17 15L17.5 16.5H19L17.8 17.5L18.2 19L17 18.1L15.8 19L16.2 17.5L15 16.5H16.5L17 15ZM8.99999 15L9.49999 16.5H11L9.79999 17.5L10.2 19L8.99999 18.1L7.79999 19L8.19999 17.5L6.99999 16.5H8.49999L8.99999 15ZM29 21L29.5 22.5H31L29.8 23.5L30.2 25L29 24.1L27.8 25L28.2 23.5L27 22.5H28.5L29 21ZM21 21L21.5 22.5H23L21.8 23.5L22.2 25L21 24.1L19.8 25L20.2 23.5L19 22.5H20.5L21 21ZM13 21L13.5 22.5H15L13.8 23.5L14.2 25L13 24.1L11.8 25L12.2 23.5L11 22.5H12.5L13 21ZM25 27L25.5 28.5H27L25.8 29.5L26.2 31L25 30.1L23.8 31L24.2 29.5L23 28.5H24.5L25 27ZM17 27L17.5 28.5H19L17.8 29.5L18.2 31L17 30.1L15.8 31L16.2 29.5L15 28.5H16.5L17 27ZM8.99999 27L9.49999 28.5H11L9.79999 29.5L10.2 31L8.99999 30.1L7.79999 31L8.19999 29.5L6.99999 28.5H8.49999L8.99999 27ZM11.8 13L13 12.1L14.2 13L13.7 11.5L14.9 10.5H13.4L13 9L12.5 10.5H11.1L12.3 11.4L11.8 13V13ZM3.79999 25L4.99999 24.1L6.19999 25L5.69999 23.5L6.89999 22.5H5.49999L4.99999 21L4.49999 22.5H3.49999C3.49999 22.6 3.39999 22.7 3.39999 22.8L4.19999 23.4L3.79999 25" fill="white"/>
</svg>
