<svg width="31" height="31" viewBox="0 0 31 31" fill="none" xmlns="http://www.w3.org/2000/svg">
<path d="M14.326 19.8581C15.3322 20.2563 16.251 20.7856 17.0778 21.4441C17.9047 22.1003 18.6113 22.8659 19.1997 23.7322C20.3999 25.4801 21.0462 27.5488 21.0547 29.6691V30.625H19.1407V29.6669C19.1448 28.5355 18.9234 27.4147 18.4897 26.3699C18.0559 25.325 17.4183 24.377 16.6141 23.5812C15.8248 22.8031 14.8965 22.1798 13.8775 21.7437C12.8185 21.29 11.6784 21.0556 10.5263 21.0547C9.39495 21.0506 8.27414 21.2719 7.22928 21.7057C6.18441 22.1395 5.23642 22.7771 4.44066 23.5812C3.66277 24.3708 3.03953 25.299 2.60316 26.3178C2.15254 27.3547 1.92504 28.4725 1.9141 29.6669V30.625H3.59525e-05V29.6669C-0.00555948 27.5451 0.6421 25.4731 1.85504 23.7322C3.06318 21.9892 4.75955 20.6421 6.73097 19.8603C6.28312 19.5526 5.87529 19.1903 5.51691 18.7819C5.16278 18.3798 4.85666 17.9379 4.60472 17.465C4.35378 16.9926 4.16272 16.4907 4.03597 15.9709C3.90672 15.4415 3.83701 14.8993 3.82816 14.3544C3.82816 13.4291 4.00316 12.5606 4.35316 11.7534C5.03754 10.1542 6.31122 8.87973 7.91004 8.19438C8.73487 7.84325 9.62171 7.66098 10.5182 7.65835C11.4146 7.65572 12.3025 7.83278 13.1294 8.17906C14.7291 8.86396 16.0036 10.1385 16.6885 11.7381C17.2549 13.0701 17.3754 14.5496 17.0319 15.9556C16.9007 16.4741 16.7082 16.9728 16.45 17.4519C16.1936 17.926 15.8878 18.3718 15.5378 18.7819C15.1878 19.1909 14.7832 19.5475 14.326 19.8581ZM10.5263 19.1406C11.1847 19.1406 11.8038 19.0159 12.3813 18.7687C13.5263 18.2822 14.4376 17.3701 14.9232 16.2247C15.1835 15.6362 15.3125 15.0128 15.3125 14.3566C15.3153 13.7302 15.1923 13.1096 14.9507 12.5316C14.709 11.9537 14.3538 11.4302 13.906 10.9922C13.463 10.5603 12.9468 10.2107 12.3813 9.95969C11.7978 9.69908 11.1653 9.56632 10.5263 9.57031C9.87004 9.57031 9.25097 9.695 8.67347 9.94219C7.52216 10.4332 6.60516 11.3502 6.1141 12.5016C5.86691 13.0791 5.74222 13.6981 5.74222 14.3566C5.74222 15.0128 5.86691 15.6319 6.1141 16.2094C6.36566 16.7869 6.70472 17.2966 7.13347 17.7341C7.57733 18.1826 8.10623 18.538 8.6892 18.7795C9.27216 19.0211 9.89746 19.1438 10.5285 19.1406H10.5263ZM30.625 0V15.3125H26.7969L21.0547 21.0547V15.3125H19.1407V13.3984H22.9688V16.4347L26.005 13.3984H28.711V1.91406H9.57035V5.35281C9.24951 5.39335 8.92999 5.44369 8.61222 5.50375C8.28639 5.56561 7.96655 5.65564 7.65629 5.77281V0H30.625Z" fill="white"/>
</svg>
