<svg width="35" height="35" viewBox="0 0 35 35" fill="none" xmlns="http://www.w3.org/2000/svg">
<path d="M27.7083 5.83325H24.7917C24.4049 5.83325 24.034 5.9869 23.7605 6.26039C23.487 6.53388 23.3333 6.90481 23.3333 7.29159C23.3333 7.67836 23.487 8.04929 23.7605 8.32278C24.034 8.59627 24.4049 8.74992 24.7917 8.74992H26.25V26.2499H24.7917C24.4049 26.2499 24.034 26.4036 23.7605 26.6771C23.487 26.9505 23.3333 27.3215 23.3333 27.7083C23.3333 28.095 23.487 28.466 23.7605 28.7394C24.034 29.0129 24.4049 29.1666 24.7917 29.1666H27.7083C28.0951 29.1666 28.466 29.0129 28.7395 28.7394C29.013 28.466 29.1667 28.095 29.1667 27.7083V7.29159C29.1667 6.90481 29.013 6.53388 28.7395 6.26039C28.466 5.9869 28.0951 5.83325 27.7083 5.83325ZM17.2083 10.7916C16.9763 10.4822 16.6308 10.2776 16.2479 10.2229C15.865 10.1682 15.4761 10.2679 15.1667 10.4999C14.8572 10.732 14.6527 11.0775 14.598 11.4603C14.5433 11.8432 14.6429 12.2322 14.875 12.5416L17.5 16.0416H5.83333C5.44656 16.0416 5.07563 16.1952 4.80214 16.4687C4.52865 16.7422 4.375 17.1131 4.375 17.4999C4.375 17.8867 4.52865 18.2576 4.80214 18.5311C5.07563 18.8046 5.44656 18.9583 5.83333 18.9583H17.6312L15.1229 22.5166C15.011 22.6733 14.9313 22.8507 14.8883 23.0384C14.8453 23.2261 14.8399 23.4205 14.8724 23.6104C14.905 23.8002 14.9748 23.9817 15.0779 24.1444C15.1809 24.3071 15.3152 24.4477 15.4729 24.5583C15.7208 24.7313 16.0164 24.823 16.3187 24.8208C16.5501 24.8197 16.7779 24.7636 16.9833 24.6571C17.1887 24.5506 17.3658 24.3967 17.5 24.2083L21.6125 18.3749C21.795 18.1252 21.8934 17.8238 21.8934 17.5145C21.8934 17.2052 21.795 16.9038 21.6125 16.6541L17.2083 10.7916Z" fill="white"/>
</svg>
