<svg width="35" height="35" viewBox="0 0 35 35" fill="none" xmlns="http://www.w3.org/2000/svg">
<path d="M32.8125 30.625C32.8125 30.625 35 30.625 35 28.4375C35 26.25 32.8125 19.6875 24.0625 19.6875C15.3125 19.6875 13.125 26.25 13.125 28.4375C13.125 30.625 15.3125 30.625 15.3125 30.625H32.8125ZM15.3606 28.4375C15.3445 28.4353 15.3284 28.4324 15.3125 28.4288C15.3147 27.8512 15.6778 26.1756 16.975 24.6663C18.1825 23.2509 20.3044 21.875 24.0625 21.875C27.8184 21.875 29.9403 23.2531 31.15 24.6663C32.4472 26.1756 32.8081 27.8534 32.8125 28.4288L32.795 28.4331C32.7848 28.4348 32.7746 28.4363 32.7644 28.4375H15.3606ZM24.0625 15.3125C25.2228 15.3125 26.3356 14.8516 27.1561 14.0311C27.9766 13.2106 28.4375 12.0978 28.4375 10.9375C28.4375 9.77718 27.9766 8.66438 27.1561 7.84391C26.3356 7.02344 25.2228 6.5625 24.0625 6.5625C22.9022 6.5625 21.7894 7.02344 20.9689 7.84391C20.1484 8.66438 19.6875 9.77718 19.6875 10.9375C19.6875 12.0978 20.1484 13.2106 20.9689 14.0311C21.7894 14.8516 22.9022 15.3125 24.0625 15.3125ZM30.625 10.9375C30.625 11.7993 30.4553 12.6527 30.1255 13.4489C29.7957 14.2451 29.3123 14.9685 28.7029 15.5779C28.0935 16.1873 27.3701 16.6707 26.5739 17.0005C25.7777 17.3303 24.9243 17.5 24.0625 17.5C23.2007 17.5 22.3473 17.3303 21.5511 17.0005C20.7549 16.6707 20.0315 16.1873 19.4221 15.5779C18.8127 14.9685 18.3293 14.2451 17.9995 13.4489C17.6697 12.6527 17.5 11.7993 17.5 10.9375C17.5 9.19702 18.1914 7.52782 19.4221 6.29711C20.6528 5.0664 22.322 4.375 24.0625 4.375C25.803 4.375 27.4722 5.0664 28.7029 6.29711C29.9336 7.52782 30.625 9.19702 30.625 10.9375ZM15.1725 20.3C14.2975 20.0245 13.3955 19.8433 12.4819 19.7597C11.9685 19.7109 11.4532 19.6868 10.9375 19.6875C2.1875 19.6875 0 26.25 0 28.4375C0 29.8966 0.728437 30.625 2.1875 30.625H11.41C11.0857 29.9421 10.924 29.1934 10.9375 28.4375C10.9375 26.2281 11.7622 23.9706 13.3219 22.085C13.8534 21.4419 14.4725 20.8403 15.1725 20.3ZM10.7625 21.875C9.46784 23.8203 8.76846 26.1008 8.75 28.4375H2.1875C2.1875 27.8687 2.54625 26.1844 3.85 24.6663C5.04219 23.275 7.11375 21.9188 10.7625 21.8772V21.875ZM3.28125 12.0312C3.28125 10.2908 3.97265 8.62157 5.20336 7.39086C6.43407 6.16015 8.10327 5.46875 9.84375 5.46875C11.5842 5.46875 13.2534 6.16015 14.4841 7.39086C15.7148 8.62157 16.4062 10.2908 16.4062 12.0312C16.4062 13.7717 15.7148 15.4409 14.4841 16.6716C13.2534 17.9023 11.5842 18.5938 9.84375 18.5938C8.10327 18.5938 6.43407 17.9023 5.20336 16.6716C3.97265 15.4409 3.28125 13.7717 3.28125 12.0312ZM9.84375 7.65625C8.68343 7.65625 7.57063 8.11719 6.75016 8.93766C5.92969 9.75813 5.46875 10.8709 5.46875 12.0312C5.46875 13.1916 5.92969 14.3044 6.75016 15.1248C7.57063 15.9453 8.68343 16.4062 9.84375 16.4062C11.0041 16.4062 12.1169 15.9453 12.9373 15.1248C13.7578 14.3044 14.2188 13.1916 14.2188 12.0312C14.2188 10.8709 13.7578 9.75813 12.9373 8.93766C12.1169 8.11719 11.0041 7.65625 9.84375 7.65625Z" fill="white"/>
</svg>
