<svg width="48" height="48" viewBox="0 0 48 48" fill="none" xmlns="http://www.w3.org/2000/svg">
<path fill-rule="evenodd" clip-rule="evenodd" d="M24 42C33.941 42 42 33.941 42 24C42 14.059 33.941 6 24 6C14.059 6 6 14.059 6 24C6 33.941 14.059 42 24 42ZM24 44C35.046 44 44 35.046 44 24C44 12.954 35.046 4 24 4C12.954 4 4 12.954 4 24C4 35.046 12.954 44 24 44Z" fill="#F40F0F"/>
<path fill-rule="evenodd" clip-rule="evenodd" d="M16.222 31.7781C16.0345 31.5906 15.9292 31.3363 15.9292 31.0711C15.9292 30.806 16.0345 30.5516 16.222 30.3641L30.364 16.2221C30.5526 16.04 30.8052 15.9392 31.0674 15.9414C31.3296 15.9437 31.5804 16.0489 31.7658 16.2343C31.9512 16.4197 32.0564 16.6705 32.0587 16.9327C32.0609 17.1949 31.9601 17.4475 31.778 17.6361L17.636 31.7781C17.4485 31.9656 17.1942 32.0709 16.929 32.0709C16.6638 32.0709 16.4095 31.9656 16.222 31.7781Z" fill="#F40F0F"/>
<path fill-rule="evenodd" clip-rule="evenodd" d="M16.222 16.2225C16.4095 16.035 16.6638 15.9297 16.929 15.9297C17.1942 15.9297 17.4485 16.035 17.636 16.2225L31.778 30.3645C31.9601 30.5531 32.0609 30.8057 32.0587 31.0679C32.0564 31.3301 31.9512 31.5809 31.7658 31.7663C31.5804 31.9517 31.3296 32.0569 31.0674 32.0591C30.8052 32.0614 30.5526 31.9606 30.364 31.7785L16.222 17.6365C16.0345 17.4489 15.9292 17.1946 15.9292 16.9295C15.9292 16.6643 16.0345 16.41 16.222 16.2225Z" fill="#F40F0F"/>
</svg>
