<svg width="39" height="41" viewBox="0 0 39 41" fill="none" xmlns="http://www.w3.org/2000/svg">
<g filter="url(#filter0_d_164_273)">
<path d="M19.5 28.0001C15.8542 28.0001 12.6313 26.1334 10.75 23.3334C10.7938 20.4168 16.5834 18.8126 19.5 18.8126C22.4167 18.8126 28.2063 20.4168 28.25 23.3334C27.2859 24.769 25.9836 25.9455 24.4577 26.7593C22.9319 27.5731 21.2293 27.9992 19.5 28.0001ZM19.5 7.29175C20.6603 7.29175 21.7731 7.75269 22.5936 8.57316C23.4141 9.39363 23.875 10.5064 23.875 11.6667C23.875 12.8271 23.4141 13.9399 22.5936 14.7603C21.7731 15.5808 20.6603 16.0418 19.5 16.0418C18.3397 16.0418 17.2269 15.5808 16.4064 14.7603C15.586 13.9399 15.125 12.8271 15.125 11.6667C15.125 10.5064 15.586 9.39363 16.4064 8.57316C17.2269 7.75269 18.3397 7.29175 19.5 7.29175ZM19.5 2.91675C17.5849 2.91675 15.6886 3.29396 13.9192 4.02684C12.1499 4.75972 10.5422 5.83392 9.18805 7.18811C6.45314 9.92301 4.91669 13.6323 4.91669 17.5001C4.91669 21.3678 6.45314 25.0772 9.18805 27.8121C10.5422 29.1662 12.1499 30.2404 13.9192 30.9733C15.6886 31.7062 17.5849 32.0834 19.5 32.0834C23.3678 32.0834 27.0771 30.547 29.812 27.8121C32.5469 25.0772 34.0834 21.3678 34.0834 17.5001C34.0834 9.4355 27.5209 2.91675 19.5 2.91675Z" fill="white"/>
</g>
<defs>
<filter id="filter0_d_164_273" x="-2" y="0" width="43" height="43" filterUnits="userSpaceOnUse" color-interpolation-filters="sRGB">
<feFlood flood-opacity="0" result="BackgroundImageFix"/>
<feColorMatrix in="SourceAlpha" type="matrix" values="0 0 0 0 0 0 0 0 0 0 0 0 0 0 0 0 0 0 127 0" result="hardAlpha"/>
<feOffset dy="4"/>
<feGaussianBlur stdDeviation="2"/>
<feComposite in2="hardAlpha" operator="out"/>
<feColorMatrix type="matrix" values="0 0 0 0 0 0 0 0 0 0 0 0 0 0 0 0 0 0 0.25 0"/>
<feBlend mode="normal" in2="BackgroundImageFix" result="effect1_dropShadow_164_273"/>
<feBlend mode="normal" in="SourceGraphic" in2="effect1_dropShadow_164_273" result="shape"/>
</filter>
</defs>
</svg>
