<svg width="35" height="35" viewBox="0 0 35 35" fill="none" xmlns="http://www.w3.org/2000/svg">
<path d="M8.77334 6.56543C8.20286 6.56486 7.63786 6.6768 7.1107 6.89484C6.58353 7.11289 6.10454 7.43277 5.70115 7.83616C5.29776 8.23955 4.97788 8.71854 4.75983 9.24571C4.54179 9.77287 4.42985 10.3379 4.43042 10.9083C4.43042 14.1648 8.77334 18.9729 8.77334 18.9729C8.77334 18.9729 13.1163 14.1648 13.1163 10.9083C13.1168 10.3379 13.0049 9.77287 12.7868 9.24571C12.5688 8.71854 12.2489 8.23955 11.8455 7.83616C11.4421 7.43277 10.9631 7.11289 10.436 6.89484C9.90881 6.6768 9.34382 6.56486 8.77334 6.56543ZM8.77334 12.4586C8.46674 12.4586 8.16702 12.3676 7.91209 12.1973C7.65716 12.027 7.45846 11.7849 7.34113 11.5016C7.2238 11.2183 7.1931 10.9066 7.25292 10.6059C7.31273 10.3052 7.46038 10.029 7.67718 9.81219C7.89398 9.59538 8.1702 9.44774 8.47091 9.38793C8.77162 9.32811 9.08331 9.35881 9.36658 9.47614C9.64984 9.59347 9.89195 9.79217 10.0623 10.0471C10.2326 10.302 10.3235 10.6017 10.3235 10.9083C10.3232 11.3194 10.1597 11.7134 9.86907 12.0041C9.57844 12.2947 9.18436 12.4582 8.77334 12.4586Z" fill="white"/>
<path d="M30.66 16.4732V10.2024C30.6498 9.54389 30.5497 8.88987 30.3625 8.25844C29.884 6.58912 28.825 5.1456 27.3763 4.18803C25.9276 3.23046 24.1846 2.82181 22.4612 3.03573C20.7379 3.24965 19.1477 4.07207 17.9771 5.35478C16.8065 6.63748 16.1325 8.29612 16.0767 10.0318V10.3934L16.0621 11.6622V26.1755H16.0563V26.2353C16.0563 27.0089 15.749 27.7507 15.202 28.2977C14.655 28.8447 13.9132 29.152 13.1396 29.152C12.3661 29.152 11.6242 28.8447 11.0772 28.2977C10.5302 27.7507 10.2229 27.0089 10.2229 26.2353C10.2229 26.2178 10.2273 26.2003 10.2288 26.1814H10.2229V23.3478H7.30627V26.2645H7.30919C7.31016 27.8108 7.92536 29.2934 9.01946 30.3861C10.1136 31.4789 11.5969 32.0922 13.1433 32.0912C14.6896 32.0903 16.1722 31.4751 17.2649 30.381C18.3576 29.2869 18.971 27.8035 18.97 26.2572H18.9729V24.8251H18.9802V13.1205L18.9948 10.3934V10.0332C19.0364 8.88517 19.5277 7.79949 20.3627 7.01051C21.1978 6.22153 22.3095 5.79251 23.4581 5.81606C24.6067 5.8396 25.6999 6.31382 26.5019 7.13636C27.3039 7.95891 27.7503 9.06381 27.7448 10.2126V16.447C27.1864 16.763 26.7478 17.2544 26.497 17.845C26.2463 18.4357 26.1974 19.0925 26.358 19.7138C26.5186 20.335 26.8796 20.8859 27.3852 21.2811C27.8908 21.6762 28.5126 21.8935 29.1542 21.8993C29.7958 21.9051 30.4214 21.699 30.934 21.313C31.4466 20.927 31.8175 20.3827 31.9893 19.7645C32.161 19.1462 32.124 18.4886 31.8839 17.8935C31.6438 17.2984 31.2142 16.7992 30.6615 16.4732H30.66Z" fill="white"/>
</svg>
