<svg width="44" height="39" viewBox="0 0 44 39" fill="none" xmlns="http://www.w3.org/2000/svg">
<g filter="url(#filter0_d_406_149)">
<path d="M40 27C40 28.0609 39.5786 29.0783 38.8284 29.8284C38.0783 30.5786 37.0609 31 36 31H8C6.93913 31 5.92172 30.5786 5.17157 29.8284C4.42143 29.0783 4 28.0609 4 27V23H40V27Z" fill="#CE2028"/>
<path d="M4 13H40V23H4V13Z" fill="#22408C"/>
<path d="M36 5H8C6.93913 5 5.92172 5.42143 5.17157 6.17157C4.42143 6.92172 4 7.93913 4 9L4 13H40V9C40 7.93913 39.5786 6.92172 38.8284 6.17157C38.0783 5.42143 37.0609 5 36 5V5Z" fill="#EEEEEE"/>
</g>
<defs>
<filter id="filter0_d_406_149" x="0" y="0" width="44" height="44" filterUnits="userSpaceOnUse" color-interpolation-filters="sRGB">
<feFlood flood-opacity="0" result="BackgroundImageFix"/>
<feColorMatrix in="SourceAlpha" type="matrix" values="0 0 0 0 0 0 0 0 0 0 0 0 0 0 0 0 0 0 127 0" result="hardAlpha"/>
<feOffset dy="4"/>
<feGaussianBlur stdDeviation="2"/>
<feComposite in2="hardAlpha" operator="out"/>
<feColorMatrix type="matrix" values="0 0 0 0 0 0 0 0 0 0 0 0 0 0 0 0 0 0 0.25 0"/>
<feBlend mode="normal" in2="BackgroundImageFix" result="effect1_dropShadow_406_149"/>
<feBlend mode="normal" in="SourceGraphic" in2="effect1_dropShadow_406_149" result="shape"/>
</filter>
</defs>
</svg>
