<svg width="44" height="45" viewBox="0 0 44 45" fill="none" xmlns="http://www.w3.org/2000/svg">
<g filter="url(#filter0_d_7_148)">
<path d="M39.8948 34.4842L28.533 23.1224C30.2961 20.843 31.2499 18.0562 31.2499 15.1249C31.2499 11.6162 29.8805 8.32622 27.4043 5.84561C24.928 3.36499 21.6293 2 18.1249 2C14.6206 2 11.3218 3.36937 8.84561 5.84561C6.36499 8.32185 5 11.6162 5 15.1249C5 18.6293 6.36937 21.928 8.84561 24.4043C11.3218 26.8849 14.6162 28.2499 18.1249 28.2499C21.0562 28.2499 23.8387 27.2961 26.118 25.5374L37.4799 36.8948C37.5132 36.9282 37.5527 36.9546 37.5963 36.9727C37.6398 36.9907 37.6865 37 37.7336 37C37.7807 37 37.8274 36.9907 37.8709 36.9727C37.9145 36.9546 37.954 36.9282 37.9874 36.8948L39.8948 34.9917C39.9282 34.9584 39.9546 34.9189 39.9727 34.8753C39.9907 34.8318 40 34.7851 40 34.738C40 34.6909 39.9907 34.6442 39.9727 34.6006C39.9546 34.5571 39.9282 34.5175 39.8948 34.4842ZM25.0549 22.0549C23.1999 23.9055 20.7412 24.9249 18.1249 24.9249C15.5087 24.9249 13.05 23.9055 11.195 22.0549C9.34436 20.1999 8.32499 17.7412 8.32499 15.1249C8.32499 12.5087 9.34436 10.0456 11.195 8.19497C13.05 6.34436 15.5087 5.32499 18.1249 5.32499C20.7412 5.32499 23.2043 6.33998 25.0549 8.19497C26.9055 10.05 27.9249 12.5087 27.9249 15.1249C27.9249 17.7412 26.9055 20.2043 25.0549 22.0549Z" fill="#3FA5EF"/>
</g>
<defs>
<filter id="filter0_d_7_148" x="-4" y="0" width="48" height="48" filterUnits="userSpaceOnUse" color-interpolation-filters="sRGB">
<feFlood flood-opacity="0" result="BackgroundImageFix"/>
<feColorMatrix in="SourceAlpha" type="matrix" values="0 0 0 0 0 0 0 0 0 0 0 0 0 0 0 0 0 0 127 0" result="hardAlpha"/>
<feOffset dy="4"/>
<feGaussianBlur stdDeviation="2"/>
<feComposite in2="hardAlpha" operator="out"/>
<feColorMatrix type="matrix" values="0 0 0 0 0 0 0 0 0 0 0 0 0 0 0 0 0 0 0.25 0"/>
<feBlend mode="normal" in2="BackgroundImageFix" result="effect1_dropShadow_7_148"/>
<feBlend mode="normal" in="SourceGraphic" in2="effect1_dropShadow_7_148" result="shape"/>
</filter>
</defs>
</svg>
