<svg width="30" height="30" viewBox="0 0 30 30" fill="none" xmlns="http://www.w3.org/2000/svg">
<path d="M26.1712 30H3.73874C2.70669 30 1.82556 29.6338 1.09533 28.9014C0.365111 28.1689 0 27.2852 0 26.25V3.75C0 2.71484 0.365111 1.83105 1.09533 1.09863C1.82556 0.366211 2.70669 0 3.73874 0H26.1712C27.2032 0 28.0844 0.366211 28.8146 1.09863C29.5448 1.83105 29.9099 2.71484 29.9099 3.75V26.25C29.9099 27.2852 29.5448 28.1689 28.8146 28.9014C28.0844 29.6338 27.2032 30 26.1712 30ZM9.34685 21.5625C9.34685 21.3086 9.25435 21.0889 9.06936 20.9033C8.88437 20.7178 8.66531 20.625 8.41216 20.625H6.54279C6.28965 20.625 6.07058 20.7178 5.88559 20.9033C5.7006 21.0889 5.60811 21.3086 5.60811 21.5625V25.3125C5.60811 25.5664 5.7006 25.7861 5.88559 25.9717C6.07058 26.1572 6.28965 26.25 6.54279 26.25H8.41216C8.66531 26.25 8.88437 26.1572 9.06936 25.9717C9.25435 25.7861 9.34685 25.5664 9.34685 25.3125V21.5625ZM16.8243 14.0625C16.8243 13.8086 16.7318 13.5889 16.5468 13.4033C16.3618 13.2178 16.1428 13.125 15.8896 13.125H14.0203C13.7671 13.125 13.5481 13.2178 13.3631 13.4033C13.1781 13.5889 13.0856 13.8086 13.0856 14.0625V25.3125C13.0856 25.5664 13.1781 25.7861 13.3631 25.9717C13.5481 26.1572 13.7671 26.25 14.0203 26.25H15.8896C16.1428 26.25 16.3618 26.1572 16.5468 25.9717C16.7318 25.7861 16.8243 25.5664 16.8243 25.3125V14.0625ZM24.3018 4.6875C24.3018 4.43359 24.2093 4.21387 24.0243 4.02832C23.8393 3.84277 23.6203 3.75 23.3671 3.75H21.4977C21.2446 3.75 21.0255 3.84277 20.8405 4.02832C20.6556 4.21387 20.5631 4.43359 20.5631 4.6875V25.3125C20.5631 25.5664 20.6556 25.7861 20.8405 25.9717C21.0255 26.1572 21.2446 26.25 21.4977 26.25H23.3671C23.6203 26.25 23.8393 26.1572 24.0243 25.9717C24.2093 25.7861 24.3018 25.5664 24.3018 25.3125V4.6875Z" fill="white"/>
</svg>
