<svg width="35" height="35" viewBox="0 0 35 35" fill="none" xmlns="http://www.w3.org/2000/svg">
<path d="M17.5 4.375C9.47919 4.375 2.91669 9.59583 2.91669 16.0417C2.9533 17.5914 3.33177 19.114 4.02504 20.5005C4.7183 21.8871 5.70926 23.1033 6.9271 24.0625C6.9271 24.9375 6.3146 27.2271 2.91669 30.625C6.37294 30.4646 9.68335 29.1667 12.3521 26.9792C14.0146 27.4604 15.7646 27.7083 17.5 27.7083C25.5209 27.7083 32.0834 22.4875 32.0834 16.0417C32.0834 9.59583 25.5209 4.375 17.5 4.375ZM17.5 24.7917C11.0542 24.7917 5.83335 20.8687 5.83335 16.0417C5.83335 11.2146 11.0542 7.29167 17.5 7.29167C23.9459 7.29167 29.1667 11.2146 29.1667 16.0417C29.1667 20.8687 23.9459 24.7917 17.5 24.7917ZM16.0417 18.9583V21.875H18.9584V18.9583H16.0417ZM16.0417 16.0417H18.9584V10.2083H16.0417V16.0417Z" fill="white"/>
</svg>
