<svg width="35" height="35" viewBox="0 0 35 35" fill="none" xmlns="http://www.w3.org/2000/svg">
<path fill-rule="evenodd" clip-rule="evenodd" d="M17.5 1.45825C8.6406 1.45825 1.45831 8.64054 1.45831 17.4999C1.45831 26.3593 8.6406 33.5416 17.5 33.5416C26.3594 33.5416 33.5416 26.3593 33.5416 17.4999C33.5416 8.64054 26.3594 1.45825 17.5 1.45825ZM16.7708 8.74992C16.384 8.74992 16.0131 8.90356 15.7396 9.17705C15.4661 9.45054 15.3125 9.82148 15.3125 10.2083C15.3125 10.595 15.4661 10.966 15.7396 11.2394C16.0131 11.5129 16.384 11.6666 16.7708 11.6666H17.5C17.8868 11.6666 18.2577 11.5129 18.5312 11.2394C18.8047 10.966 18.9583 10.595 18.9583 10.2083C18.9583 9.82148 18.8047 9.45054 18.5312 9.17705C18.2577 8.90356 17.8868 8.74992 17.5 8.74992H16.7708ZM14.5833 14.5833C14.1965 14.5833 13.8256 14.7369 13.5521 15.0104C13.2786 15.2839 13.125 15.6548 13.125 16.0416C13.125 16.4284 13.2786 16.7993 13.5521 17.0728C13.8256 17.3463 14.1965 17.4999 14.5833 17.4999H16.0416V21.8749H14.5833C14.1965 21.8749 13.8256 22.0286 13.5521 22.3021C13.2786 22.5755 13.125 22.9465 13.125 23.3333C13.125 23.72 13.2786 24.091 13.5521 24.3644C13.8256 24.6379 14.1965 24.7916 14.5833 24.7916H20.4166C20.8034 24.7916 21.1744 24.6379 21.4478 24.3644C21.7213 24.091 21.875 23.72 21.875 23.3333C21.875 22.9465 21.7213 22.5755 21.4478 22.3021C21.1744 22.0286 20.8034 21.8749 20.4166 21.8749H18.9583V16.0416C18.9583 15.6548 18.8047 15.2839 18.5312 15.0104C18.2577 14.7369 17.8868 14.5833 17.5 14.5833H14.5833Z" fill="white"/>
</svg>
