<svg width="32" height="24" viewBox="0 0 32 24" fill="none" xmlns="http://www.w3.org/2000/svg">
<mask id="mask0_244_181" style="mask-type:alpha" maskUnits="userSpaceOnUse" x="0" y="0" width="32" height="24">
<path d="M0 0H32V24H0V0Z" fill="white"/>
</mask>
<g mask="url(#mask0_244_181)">
<path fill-rule="evenodd" clip-rule="evenodd" d="M0 0V24H32V0H0Z" fill="#2E42A5"/>
<mask id="mask1_244_181" style="mask-type:alpha" maskUnits="userSpaceOnUse" x="0" y="0" width="32" height="24">
<path fill-rule="evenodd" clip-rule="evenodd" d="M0 0V24H32V0H0Z" fill="white"/>
</mask>
<g mask="url(#mask1_244_181)">
<mask id="mask2_244_181" style="mask-type:alpha" maskUnits="userSpaceOnUse" x="0" y="0" width="32" height="24">
<path d="M0 0H32V24H0V0Z" fill="white"/>
</mask>
<g mask="url(#mask2_244_181)">
<path d="M-3.56299 22.2849L3.47901 25.2639L32.159 3.23789L35.874 -1.18811L28.344 -2.18311L16.646 7.30789L7.23001 13.7039L-3.56299 22.2849V22.2849Z" fill="white"/>
<path d="M-2.60001 24.3719L0.988994 26.0999L34.54 -1.59912H29.503L-2.59901 24.3709L-2.60001 24.3719Z" fill="#F50100"/>
<path d="M35.563 22.2849L28.521 25.2639L-0.158993 3.23789L-3.87399 -1.18811L3.65601 -2.18311L15.354 7.30789L24.77 13.7039L35.563 22.2849Z" fill="white"/>
<path d="M35.323 23.7829L31.735 25.5109L17.449 13.6509L13.213 12.3269L-4.23199 -1.1731H0.806005L18.24 12.0069L22.871 13.5949L35.323 23.7829Z" fill="#F50100"/>
<mask id="mask3_244_181" style="mask-type:alpha" maskUnits="userSpaceOnUse" x="-2" y="-2" width="37" height="28">
<path fill-rule="evenodd" clip-rule="evenodd" d="M19.778 -2H12.222V8H-1.97198V16H12.222V26H19.778V16H34.028V8H19.778V-2V-2Z" fill="white"/>
</mask>
<g mask="url(#mask3_244_181)">
<path fill-rule="evenodd" clip-rule="evenodd" d="M19.778 -2H12.222V8H-1.97198V16H12.222V26H19.778V16H34.028V8H19.778V-2V-2Z" fill="#F50100"/>
<path d="M12.222 -2V-4H10.222V-2H12.222ZM19.778 -2H21.778V-4H19.778V-2ZM12.222 8V10H14.222V8H12.222ZM-1.97198 8V6H-3.97198V8H-1.97198ZM-1.97198 16H-3.97198V18H-1.97198V16ZM12.222 16H14.222V14H12.222V16ZM12.222 26H10.222V28H12.222V26ZM19.778 26V28H21.778V26H19.778ZM19.778 16V14H17.778V16H19.778ZM34.028 16V18H36.028V16H34.028ZM34.028 8H36.028V6H34.028V8ZM19.778 8H17.778V10H19.778V8ZM12.222 0H19.778V-4H12.222V0ZM14.222 8V-2H10.222V8H14.222ZM-1.97198 10H12.222V6H-1.97198V10V10ZM0.0280151 16V8H-3.97198V16H0.0280151ZM12.222 14H-1.97198V18H12.222V14V14ZM14.222 26V16H10.222V26H14.222ZM19.778 24H12.222V28H19.778V24ZM17.778 16V26H21.778V16H17.778ZM34.028 14H19.778V18H34.028V14ZM32.028 8V16H36.028V8H32.028ZM19.778 10H34.028V6H19.778V10ZM17.778 -2V8H21.778V-2H17.778Z" fill="white"/>
</g>
</g>
</g>
</g>
</svg>
