<svg width="35" height="35" viewBox="0 0 35 35" fill="none" xmlns="http://www.w3.org/2000/svg">
<path d="M3.88282 17.0625C4.05686 17.193 4.27564 17.2491 4.49101 17.2183C4.70639 17.1876 4.90072 17.0725 5.03125 16.8984C5.71814 15.9833 6.60833 15.2404 7.63155 14.7283C8.65478 14.2162 9.78303 13.9489 10.9273 13.9476C12.0715 13.9462 13.2004 14.2109 14.2248 14.7206C15.2492 15.2304 16.1411 15.9712 16.8301 16.8848L16.8984 16.9668L16.9531 17.0215H16.9668L17.0078 17.0488L17.1035 17.1172H17.1445L17.2402 17.1582H17.2676L17.3496 17.1855H17.7734L17.8555 17.1445H17.8828L17.9375 17.1172L17.9648 17.0898H18.0059C18.0195 17.0898 18.0195 17.0762 18.0332 17.0625L18.0742 17.0215H18.1016L18.1563 16.9531C18.8439 16.0362 19.7357 15.292 20.7608 14.7794C21.786 14.2669 22.9164 14 24.0625 14C25.2087 14 26.3391 14.2669 27.3642 14.7794C28.3893 15.292 29.2811 16.0362 29.9688 16.9531C30.0993 17.1272 30.2936 17.2422 30.509 17.273C30.7244 17.3038 30.9432 17.2477 31.1172 17.1172C31.2034 17.0526 31.276 16.9716 31.3309 16.8789C31.3858 16.7862 31.4218 16.6836 31.4371 16.5769C31.4523 16.4703 31.4464 16.3617 31.4197 16.2574C31.3929 16.153 31.3459 16.0549 31.2813 15.9688C30.2453 14.5869 28.8367 13.5293 27.2207 12.9199C27.8635 12.4333 28.3827 11.8023 28.7366 11.0779C29.0905 10.3536 29.269 9.55611 29.2578 8.75C29.2578 7.37212 28.7105 6.05067 27.7361 5.07636C26.7618 4.10205 25.4404 3.55469 24.0625 3.55469C22.6846 3.55469 21.3632 4.10205 20.3889 5.07636C19.4146 6.05067 18.8672 7.37212 18.8672 8.75C18.8645 9.5469 19.0472 10.3335 19.4007 11.0477C19.7543 11.7619 20.269 12.3841 20.9043 12.8652C19.6082 13.3462 18.4425 14.1234 17.5 15.1348C16.5575 14.1234 15.3918 13.3462 14.0957 12.8652C14.731 12.3841 15.2457 11.7619 15.5993 11.0477C15.9528 10.3335 16.1355 9.5469 16.1328 8.75C16.1328 7.37212 15.5855 6.05067 14.6111 5.07636C13.6368 4.10205 12.3154 3.55469 10.9375 3.55469C9.55962 3.55469 8.23817 4.10205 7.26386 5.07636C6.28955 6.05067 5.74219 7.37212 5.74219 8.75C5.73953 9.5469 5.92219 10.3335 6.27573 11.0477C6.62927 11.7619 7.14401 12.3841 7.7793 12.8652C6.16333 13.4746 4.75471 14.5322 3.71875 15.9141C3.58822 16.0881 3.53217 16.3069 3.56294 16.5223C3.5937 16.7376 3.70877 16.932 3.88282 17.0625V17.0625ZM20.5078 8.75C20.5078 8.04695 20.7163 7.35969 21.1069 6.77512C21.4975 6.19056 22.0527 5.73494 22.7022 5.4659C23.3517 5.19685 24.0665 5.12646 24.756 5.26362C25.4455 5.40077 26.0789 5.73932 26.5761 6.23646C27.0732 6.73359 27.4117 7.36697 27.5489 8.05651C27.6861 8.74606 27.6157 9.46079 27.3466 10.1103C27.0776 10.7599 26.622 11.315 26.0374 11.7056C25.4528 12.0962 24.7656 12.3047 24.0625 12.3047C23.1209 12.3011 22.2188 11.9254 21.5529 11.2596C20.8871 10.5937 20.5114 9.69165 20.5078 8.75V8.75ZM7.38282 8.75C7.38282 8.04695 7.5913 7.35969 7.98189 6.77512C8.37248 6.19056 8.92765 5.73494 9.57718 5.4659C10.2267 5.19685 10.9414 5.12646 11.631 5.26362C12.3205 5.40077 12.9539 5.73932 13.451 6.23646C13.9482 6.73359 14.2867 7.36697 14.4239 8.05651C14.561 8.74606 14.4907 9.46079 14.2216 10.1103C13.9526 10.7599 13.4969 11.315 12.9124 11.7056C12.3278 12.0962 11.6406 12.3047 10.9375 12.3047C9.99585 12.3011 9.09379 11.9254 8.42794 11.2596C7.76208 10.5937 7.38642 9.69165 7.38282 8.75V8.75ZM27.2207 27.084C27.856 26.6029 28.3707 25.9807 28.7243 25.2665C29.0778 24.5523 29.2605 23.7657 29.2578 22.9688C29.2578 21.5909 28.7105 20.2694 27.7361 19.2951C26.7618 18.3208 25.4404 17.7734 24.0625 17.7734C22.6846 17.7734 21.3632 18.3208 20.3889 19.2951C19.4146 20.2694 18.8672 21.5909 18.8672 22.9688C18.8645 23.7657 19.0472 24.5523 19.4007 25.2665C19.7543 25.9807 20.269 26.6029 20.9043 27.084C19.6082 27.565 18.4425 28.3421 17.5 29.3535C16.5575 28.3421 15.3918 27.565 14.0957 27.084C14.731 26.6029 15.2457 25.9807 15.5993 25.2665C15.9528 24.5523 16.1355 23.7657 16.1328 22.9688C16.1328 21.5909 15.5855 20.2694 14.6111 19.2951C13.6368 18.3208 12.3154 17.7734 10.9375 17.7734C9.55962 17.7734 8.23817 18.3208 7.26386 19.2951C6.28955 20.2694 5.74219 21.5909 5.74219 22.9688C5.73953 23.7657 5.92219 24.5523 6.27573 25.2665C6.62927 25.9807 7.14401 26.6029 7.7793 27.084C6.16333 27.6933 4.75471 28.751 3.71875 30.1328C3.65412 30.219 3.60709 30.3171 3.58036 30.4214C3.55362 30.5258 3.5477 30.6344 3.56294 30.741C3.57817 30.8477 3.61426 30.9502 3.66915 31.0429C3.72403 31.1356 3.79664 31.2166 3.88282 31.2813C3.969 31.3459 4.06706 31.3929 4.17142 31.4196C4.27577 31.4464 4.38437 31.4523 4.49101 31.4371C4.59766 31.4218 4.70025 31.3857 4.79295 31.3309C4.88564 31.276 4.96662 31.2034 5.03125 31.1172C5.71814 30.2021 6.60833 29.4591 7.63155 28.947C8.65478 28.4349 9.78303 28.1676 10.9273 28.1663C12.0715 28.165 13.2004 28.4296 14.2248 28.9394C15.2492 29.4491 16.1411 30.19 16.8301 31.1035L16.8984 31.1855L16.9531 31.2402H16.9668L17.0078 31.2676L17.1035 31.3359H17.1445L17.2402 31.377H17.2676L17.3496 31.4043H17.7734L17.8555 31.3633H17.8828L17.9375 31.3359L17.9648 31.3086H18.0059C18.0195 31.3086 18.0195 31.2949 18.0332 31.2813L18.0742 31.2402H18.1016L18.1563 31.1719C18.8439 30.255 19.7357 29.5107 20.7608 28.9982C21.786 28.4856 22.9164 28.2187 24.0625 28.2187C25.2087 28.2187 26.3391 28.4856 27.3642 28.9982C28.3893 29.5107 29.2811 30.255 29.9688 31.1719C30.0993 31.3459 30.2936 31.461 30.509 31.4918C30.7244 31.5225 30.9432 31.4665 31.1172 31.3359C31.2912 31.2054 31.4063 31.0111 31.4371 30.7957C31.4678 30.5803 31.4118 30.3615 31.2813 30.1875C30.2529 28.7855 28.8435 27.7083 27.2207 27.084V27.084ZM7.38282 22.9688C7.38282 22.2657 7.5913 21.5784 7.98189 20.9939C8.37248 20.4093 8.92765 19.9537 9.57718 19.6846C10.2267 19.4156 10.9414 19.3452 11.631 19.4824C12.3205 19.6195 12.9539 19.9581 13.451 20.4552C13.9482 20.9523 14.2867 21.5857 14.4239 22.2753C14.561 22.9648 14.4907 23.6795 14.2216 24.3291C13.9526 24.9786 13.4969 25.5338 12.9124 25.9244C12.3278 26.315 11.6406 26.5234 10.9375 26.5234C9.99585 26.5198 9.09379 26.1442 8.42794 25.4783C7.76208 24.8125 7.38642 23.9104 7.38282 22.9688V22.9688ZM20.5078 22.9688C20.5078 22.2657 20.7163 21.5784 21.1069 20.9939C21.4975 20.4093 22.0527 19.9537 22.7022 19.6846C23.3517 19.4156 24.0665 19.3452 24.756 19.4824C25.4455 19.6195 26.0789 19.9581 26.5761 20.4552C27.0732 20.9523 27.4117 21.5857 27.5489 22.2753C27.6861 22.9648 27.6157 23.6795 27.3466 24.3291C27.0776 24.9786 26.622 25.5338 26.0374 25.9244C25.4528 26.315 24.7656 26.5234 24.0625 26.5234C23.1209 26.5198 22.2188 26.1442 21.5529 25.4783C20.8871 24.8125 20.5114 23.9104 20.5078 22.9688V22.9688Z" fill="white"/>
</svg>
