<svg width="30" height="35" viewBox="0 0 30 35" fill="none" xmlns="http://www.w3.org/2000/svg">
<path d="M23.2031 0H6.78937C6.36937 0 4.16624 0.11375 2.09625 2.36425C0.058125 4.578 0 6.7585 0 7V26.25C0 27.1783 0.395088 28.0685 1.09835 28.7249C1.80161 29.3813 2.75543 29.75 3.75 29.75H5.62499L1.875 35H6.28687L7.53749 33.25H22.5375L23.8068 35H28.125L24.375 29.75H26.25C27.2445 29.75 28.1984 29.3813 28.9016 28.7249C29.6049 28.0685 30 27.1783 30 26.25V7C30.0018 6.671 29.94 4.4905 27.8831 2.33625C25.7156 0.0647501 23.4543 0 23.2031 0ZM11.25 3.5H18.75V7H11.25V3.5ZM6.56249 26.25C5.81632 26.2498 5.10081 25.9729 4.57337 25.4803C4.04592 24.9877 3.74975 24.3197 3.75 23.6232C3.75024 22.9268 4.0469 22.259 4.57469 21.7667C5.10249 21.2744 5.8182 20.998 6.56437 20.9982C7.31054 20.9985 8.02605 21.2754 8.55349 21.768C9.08094 22.2606 9.37711 22.9286 9.37686 23.625C9.37662 24.3214 9.07996 24.9892 8.55217 25.4815C8.02437 25.9738 7.30866 26.2502 6.56249 26.25ZM23.4375 26.25C22.6913 26.2498 21.9758 25.9729 21.4483 25.4803C20.9209 24.9877 20.6247 24.3197 20.625 23.6232C20.6252 22.9268 20.9219 22.259 21.4497 21.7667C21.9775 21.2744 22.6932 20.998 23.4393 20.9982C24.1855 20.9985 24.901 21.2754 25.4285 21.768C25.9559 22.2606 26.2521 22.9286 26.2518 23.625C26.2516 24.3214 25.9549 24.9892 25.4271 25.4815C24.8993 25.9738 24.1836 26.2502 23.4375 26.25ZM26.25 17.5H3.75V10.5H26.25V17.5Z" fill="white"/>
</svg>
