<svg width="48" height="48" viewBox="0 0 48 48" fill="none" xmlns="http://www.w3.org/2000/svg">
<path fill-rule="evenodd" clip-rule="evenodd" d="M24 42C33.941 42 42 33.941 42 24C42 14.059 33.941 6 24 6C14.059 6 6 14.059 6 24C6 33.941 14.059 42 24 42ZM24 44C35.046 44 44 35.046 44 24C44 12.954 35.046 4 24 4C12.954 4 4 12.954 4 24C4 35.046 12.954 44 24 44Z" fill="#40E83D"/>
<path fill-rule="evenodd" clip-rule="evenodd" d="M34.67 16.26C34.8667 16.4377 34.9848 16.6863 34.9983 16.9511C35.0118 17.2158 34.9196 17.4751 34.742 17.672L21.386 32.433L13.31 24.724C13.1287 24.5386 13.0264 24.2901 13.0248 24.0308C13.0232 23.7715 13.1223 23.5218 13.3013 23.3342C13.4803 23.1466 13.7252 23.0359 13.9843 23.0254C14.2434 23.0149 14.4964 23.1055 14.69 23.278L21.28 29.568L33.259 16.331C33.3471 16.2336 33.4536 16.1545 33.5724 16.0982C33.6911 16.042 33.8198 16.0097 33.951 16.0032C34.0822 15.9967 34.2134 16.0161 34.3371 16.0603C34.4609 16.1046 34.5746 16.1727 34.672 16.261L34.67 16.26Z" fill="#40E83D"/>
</svg>
